<?xml version="1.0" encoding="UTF-8" standalone="no"?>
<!DOCTYPE svg PUBLIC "-//W3C//DTD SVG 1.1//EN" "http://www.w3.org/Graphics/SVG/1.1/DTD/svg11.dtd">
<svg width="100%" height="100%" viewBox="0 0 256 56" version="1.1" xmlns="http://www.w3.org/2000/svg" xmlns:xlink="http://www.w3.org/1999/xlink" xml:space="preserve" xmlns:serif="http://www.serif.com/" style="fill-rule:evenodd;clip-rule:evenodd;stroke-linejoin:round;stroke-miterlimit:2;">
    <g transform="matrix(1,0,0,1,1,-1000.54)">
        <path d="M0,1035L0,1044.4L12,1052.4L12,1043L0,1035Z" style="fill:rgb(230,66,34);fill-rule:nonzero;"/>
        <path d="M24,1035L24,1044.4L12,1052.4L12,1043L24,1035Z" style="fill:rgb(230,90,34);fill-rule:nonzero;"/>
        <path d="M8,1029.7L0,1035L12,1043L24,1035L16,1029.7L8,1029.7Z" style="fill:rgb(230,126,34);fill-rule:nonzero;"/>
        <path d="M5.333,1032.4L5.333,1035C5.333,1037.2 8.318,1039 12,1039C15.682,1039 18.667,1037.2 18.667,1035L18.667,1032.4L5.333,1032.4L5.333,1032.4Z" style="fill:rgb(230,90,34);fill-rule:nonzero;"/>
        <path d="M5.333,1032.4L5.333,1035C5.333,1037.2 8.318,1039 12,1039L12,1032.4L5.333,1032.4Z" style="fill:rgb(230,66,34);fill-rule:nonzero;"/>
        <g transform="matrix(1.9048,0,0,1.3333,-11.81,1020.4)">
            <path d="M16,9C16,10.646 14.42,12 12.5,12C10.58,12 9,10.646 9,9C9,7.354 10.58,6 12.5,6C14.42,6 16,7.354 16,9Z" style="fill:rgb(230,126,34);fill-rule:nonzero;"/>
        </g>
    </g>
    <g transform="matrix(1,0,0,1,1,-1012.4)">
        <path d="M0,1035L0,1044.4L12,1052.4L12,1043L0,1035Z" style="fill:rgb(230,90,34);fill-rule:nonzero;"/>
        <path d="M24,1035L24,1044.4L12,1052.4L12,1043L24,1035Z" style="fill:rgb(230,126,34);fill-rule:nonzero;"/>
        <path d="M8,1029.7L0,1035L12,1043L24,1035L16,1029.7L8,1029.7Z" style="fill:rgb(243,156,18);fill-rule:nonzero;"/>
        <path d="M5.333,1032.4L5.333,1035C5.333,1037.2 8.318,1039 12,1039C15.682,1039 18.667,1037.2 18.667,1035L18.667,1032.4L5.333,1032.4L5.333,1032.4Z" style="fill:rgb(230,126,34);fill-rule:nonzero;"/>
        <path d="M5.333,1032.4L5.333,1035C5.333,1037.2 8.318,1039 12,1039L12,1032.4L5.333,1032.4Z" style="fill:rgb(230,90,34);fill-rule:nonzero;"/>
        <g transform="matrix(1.9048,0,0,1.3333,-11.81,1020.4)">
            <path d="M16,9C16,10.646 14.42,12 12.5,12C10.58,12 9,10.646 9,9C9,7.354 10.58,6 12.5,6C14.42,6 16,7.354 16,9Z" style="fill:rgb(243,156,18);fill-rule:nonzero;"/>
        </g>
    </g>
    <g transform="matrix(1,0,0,1,0.981454,-1024.25)">
        <path d="M0,1035L0,1044.4L12,1052.4L12,1043L0,1035Z" style="fill:rgb(230,126,34);fill-rule:nonzero;"/>
        <path d="M24,1035L24,1044.4L12,1052.4L12,1043L24,1035Z" style="fill:rgb(243,156,18);fill-rule:nonzero;"/>
        <path d="M8,1029.7L0,1035L12,1043L24,1035L16,1029.7L8,1029.7Z" style="fill:rgb(241,196,15);fill-rule:nonzero;"/>
        <path d="M5.333,1032.4L5.333,1035C5.333,1037.2 8.318,1039 12,1039C15.682,1039 18.667,1037.2 18.667,1035L18.667,1032.4L5.333,1032.4L5.333,1032.4Z" style="fill:rgb(243,156,18);fill-rule:nonzero;"/>
        <path d="M5.333,1032.4L5.333,1035C5.333,1037.2 8.318,1039 12,1039L12,1032.4L5.333,1032.4Z" style="fill:rgb(230,126,34);fill-rule:nonzero;"/>
        <g transform="matrix(1.9048,0,0,1.3333,-11.81,1020.4)">
            <path d="M16,9C16,10.646 14.42,12 12.5,12C10.58,12 9,10.646 9,9C9,7.354 10.58,6 12.5,6C14.42,6 16,7.354 16,9Z" style="fill:rgb(241,196,15);fill-rule:nonzero;"/>
        </g>
    </g>
    <g transform="matrix(3.00693,0,0,5.05846,-86.0841,-41.9028)">
        <text x="36.157px" y="18.035px" style="font-family:'BungeeHairline-Regular', 'Bungee Hairline';font-size:12px;fill:rgb(128,128,128);stroke:rgb(127,127,127);stroke-width:0.24px;">Component</text>
    </g>
    <g transform="matrix(3.00693,0,0,3.24045,-86.0841,-10.7948)">
        <path d="M42.073,16.835L42.073,16.955L40.069,16.955C39.293,16.955 38.779,16.835 38.527,16.595C38.275,16.355 38.149,15.959 38.149,15.407L38.149,12.047C38.149,11.479 38.277,11.075 38.533,10.835C38.789,10.595 39.301,10.475 40.069,10.475L42.073,10.475L42.073,10.595L40.069,10.595C39.365,10.595 38.889,10.705 38.641,10.925C38.393,11.145 38.269,11.519 38.269,12.047L38.269,15.407C38.269,15.927 38.389,16.295 38.629,16.511C38.869,16.727 39.349,16.835 40.069,16.835L42.073,16.835Z" style="fill:rgb(128,128,128);fill-rule:nonzero;stroke:rgb(127,127,127);stroke-width:0.32px;"/>
        <path d="M50.473,15.491C50.473,15.971 50.301,16.361 49.957,16.661C49.613,16.961 48.973,17.111 48.037,17.111C47.101,17.111 46.465,16.961 46.129,16.661C45.793,16.361 45.625,15.971 45.625,15.491L45.625,11.951C45.625,11.471 45.793,11.081 46.129,10.781C46.465,10.481 47.101,10.331 48.037,10.331C48.973,10.331 49.613,10.481 49.957,10.781C50.301,11.081 50.473,11.471 50.473,11.951L50.473,15.491ZM45.745,15.491C45.745,15.939 45.905,16.301 46.225,16.577C46.545,16.853 47.149,16.991 48.037,16.991C48.925,16.991 49.533,16.853 49.861,16.577C50.189,16.301 50.353,15.939 50.353,15.491L50.353,11.951C50.353,11.503 50.189,11.141 49.861,10.865C49.533,10.589 48.925,10.451 48.037,10.451C47.149,10.451 46.545,10.589 46.225,10.865C45.905,11.141 45.745,11.503 45.745,11.951L45.745,15.491Z" style="fill:rgb(128,128,128);fill-rule:nonzero;stroke:rgb(127,127,127);stroke-width:0.32px;"/>
        <path d="M57.529,13.415C57.673,13.415 57.777,13.383 57.841,13.319C57.905,13.255 58.005,13.119 58.141,12.911L59.605,10.679C59.653,10.599 59.707,10.545 59.767,10.517C59.827,10.489 59.889,10.475 59.953,10.475L60.157,10.475C60.269,10.475 60.351,10.505 60.403,10.565C60.455,10.625 60.481,10.719 60.481,10.847L60.481,16.955L60.361,16.955L60.361,10.847C60.361,10.783 60.347,10.725 60.319,10.673C60.291,10.621 60.237,10.595 60.157,10.595L59.977,10.595C59.921,10.595 59.873,10.603 59.833,10.619C59.793,10.635 59.749,10.683 59.701,10.763L58.237,12.971C58.093,13.187 57.983,13.335 57.907,13.415C57.831,13.495 57.705,13.535 57.529,13.535C57.353,13.535 57.227,13.495 57.151,13.415C57.075,13.335 56.965,13.187 56.821,12.971L55.357,10.763C55.309,10.683 55.263,10.635 55.219,10.619C55.175,10.603 55.125,10.595 55.069,10.595L54.889,10.595C54.809,10.595 54.757,10.621 54.733,10.673C54.709,10.725 54.697,10.783 54.697,10.847L54.697,16.955L54.577,16.955L54.577,10.847C54.577,10.719 54.603,10.625 54.655,10.565C54.707,10.505 54.785,10.475 54.889,10.475L55.093,10.475C55.157,10.475 55.221,10.489 55.285,10.517C55.349,10.545 55.405,10.599 55.453,10.679L56.917,12.911C57.053,13.119 57.153,13.255 57.217,13.319C57.281,13.383 57.385,13.415 57.529,13.415Z" style="fill:rgb(128,128,128);fill-rule:nonzero;stroke:rgb(127,127,127);stroke-width:0.32px;"/>
        <path d="M67.429,14.591L64.957,14.591L64.957,16.955L64.837,16.955L64.837,10.475L67.429,10.475C67.805,10.475 68.111,10.517 68.347,10.601C68.583,10.685 68.765,10.799 68.893,10.943C69.021,11.087 69.109,11.259 69.157,11.459C69.205,11.659 69.229,11.875 69.229,12.107L69.229,12.995C69.229,13.227 69.205,13.441 69.157,13.637C69.109,13.833 69.021,14.001 68.893,14.141C68.765,14.281 68.583,14.391 68.347,14.471C68.111,14.551 67.805,14.591 67.429,14.591ZM64.957,14.471L67.429,14.471C67.781,14.471 68.067,14.435 68.287,14.363C68.507,14.291 68.677,14.189 68.797,14.057C68.917,13.925 68.999,13.769 69.043,13.589C69.087,13.409 69.109,13.211 69.109,12.995L69.109,12.107C69.109,11.891 69.087,11.691 69.043,11.507C68.999,11.323 68.917,11.163 68.797,11.027C68.677,10.891 68.507,10.785 68.287,10.709C68.067,10.633 67.781,10.595 67.429,10.595L64.957,10.595L64.957,14.471Z" style="fill:rgb(128,128,128);fill-rule:nonzero;stroke:rgb(127,127,127);stroke-width:0.32px;"/>
        <path d="M77.689,15.491C77.689,15.971 77.517,16.361 77.173,16.661C76.829,16.961 76.189,17.111 75.253,17.111C74.317,17.111 73.681,16.961 73.345,16.661C73.009,16.361 72.841,15.971 72.841,15.491L72.841,11.951C72.841,11.471 73.009,11.081 73.345,10.781C73.681,10.481 74.317,10.331 75.253,10.331C76.189,10.331 76.829,10.481 77.173,10.781C77.517,11.081 77.689,11.471 77.689,11.951L77.689,15.491ZM72.961,15.491C72.961,15.939 73.121,16.301 73.441,16.577C73.761,16.853 74.365,16.991 75.253,16.991C76.141,16.991 76.749,16.853 77.077,16.577C77.405,16.301 77.569,15.939 77.569,15.491L77.569,11.951C77.569,11.503 77.405,11.141 77.077,10.865C76.749,10.589 76.141,10.451 75.253,10.451C74.365,10.451 73.761,10.589 73.441,10.865C73.121,11.141 72.961,11.503 72.961,11.951L72.961,15.491Z" style="fill:rgb(128,128,128);fill-rule:nonzero;stroke:rgb(127,127,127);stroke-width:0.32px;"/>
        <path d="M82.105,10.571L86.521,15.539L86.521,10.475L86.641,10.475L86.641,16.955L86.521,16.955L86.521,15.719L81.985,10.631C81.977,10.623 81.967,10.615 81.955,10.607C81.943,10.599 81.933,10.595 81.925,10.595C81.917,10.595 81.911,10.599 81.907,10.607C81.903,10.615 81.901,10.623 81.901,10.631L81.901,16.955L81.781,16.955L81.781,10.607C81.781,10.559 81.797,10.523 81.829,10.499C81.861,10.475 81.893,10.463 81.925,10.463C81.957,10.463 81.985,10.471 82.009,10.487C82.033,10.503 82.065,10.531 82.105,10.571Z" style="fill:rgb(128,128,128);fill-rule:nonzero;stroke:rgb(127,127,127);stroke-width:0.32px;"/>
        <path d="M94.909,16.835L94.909,16.955L90.865,16.955L90.865,10.475L93.937,10.475L93.937,10.595L90.985,10.595L90.985,13.607L93.937,13.607L93.937,13.727L90.985,13.727L90.985,16.835L94.909,16.835Z" style="fill:rgb(128,128,128);fill-rule:nonzero;stroke:rgb(127,127,127);stroke-width:0.32px;"/>
        <path d="M98.989,10.571L103.405,15.539L103.405,10.475L103.525,10.475L103.525,16.955L103.405,16.955L103.405,15.719L98.869,10.631C98.861,10.623 98.851,10.615 98.839,10.607C98.827,10.599 98.817,10.595 98.809,10.595C98.801,10.595 98.795,10.599 98.791,10.607C98.787,10.615 98.785,10.623 98.785,10.631L98.785,16.955L98.665,16.955L98.665,10.607C98.665,10.559 98.681,10.523 98.713,10.499C98.745,10.475 98.777,10.463 98.809,10.463C98.841,10.463 98.869,10.471 98.893,10.487C98.917,10.503 98.949,10.531 98.989,10.571Z" style="fill:rgb(128,128,128);fill-rule:nonzero;stroke:rgb(127,127,127);stroke-width:0.32px;"/>
        <path d="M109.489,16.955L109.489,10.595L107.029,10.595L107.029,10.475L112.069,10.475L112.069,10.595L109.609,10.595L109.609,16.955L109.489,16.955Z" style="fill:rgb(128,128,128);fill-rule:nonzero;stroke:rgb(127,127,127);stroke-width:0.32px;"/>
    </g>
    <g transform="matrix(3.00693,0,0,1.48818,-86.0841,19.1882)">
        <path d="M42.073,16.835L42.073,16.955L40.069,16.955C39.293,16.955 38.779,16.835 38.527,16.595C38.275,16.355 38.149,15.959 38.149,15.407L38.149,12.047C38.149,11.479 38.277,11.075 38.533,10.835C38.789,10.595 39.301,10.475 40.069,10.475L42.073,10.475L42.073,10.595L40.069,10.595C39.365,10.595 38.889,10.705 38.641,10.925C38.393,11.145 38.269,11.519 38.269,12.047L38.269,15.407C38.269,15.927 38.389,16.295 38.629,16.511C38.869,16.727 39.349,16.835 40.069,16.835L42.073,16.835Z" style="fill:rgb(128,128,128);fill-rule:nonzero;stroke:rgb(127,127,127);stroke-width:0.42px;"/>
        <path d="M50.473,15.491C50.473,15.971 50.301,16.361 49.957,16.661C49.613,16.961 48.973,17.111 48.037,17.111C47.101,17.111 46.465,16.961 46.129,16.661C45.793,16.361 45.625,15.971 45.625,15.491L45.625,11.951C45.625,11.471 45.793,11.081 46.129,10.781C46.465,10.481 47.101,10.331 48.037,10.331C48.973,10.331 49.613,10.481 49.957,10.781C50.301,11.081 50.473,11.471 50.473,11.951L50.473,15.491ZM45.745,15.491C45.745,15.939 45.905,16.301 46.225,16.577C46.545,16.853 47.149,16.991 48.037,16.991C48.925,16.991 49.533,16.853 49.861,16.577C50.189,16.301 50.353,15.939 50.353,15.491L50.353,11.951C50.353,11.503 50.189,11.141 49.861,10.865C49.533,10.589 48.925,10.451 48.037,10.451C47.149,10.451 46.545,10.589 46.225,10.865C45.905,11.141 45.745,11.503 45.745,11.951L45.745,15.491Z" style="fill:rgb(128,128,128);fill-rule:nonzero;stroke:rgb(127,127,127);stroke-width:0.42px;"/>
        <path d="M57.529,13.415C57.673,13.415 57.777,13.383 57.841,13.319C57.905,13.255 58.005,13.119 58.141,12.911L59.605,10.679C59.653,10.599 59.707,10.545 59.767,10.517C59.827,10.489 59.889,10.475 59.953,10.475L60.157,10.475C60.269,10.475 60.351,10.505 60.403,10.565C60.455,10.625 60.481,10.719 60.481,10.847L60.481,16.955L60.361,16.955L60.361,10.847C60.361,10.783 60.347,10.725 60.319,10.673C60.291,10.621 60.237,10.595 60.157,10.595L59.977,10.595C59.921,10.595 59.873,10.603 59.833,10.619C59.793,10.635 59.749,10.683 59.701,10.763L58.237,12.971C58.093,13.187 57.983,13.335 57.907,13.415C57.831,13.495 57.705,13.535 57.529,13.535C57.353,13.535 57.227,13.495 57.151,13.415C57.075,13.335 56.965,13.187 56.821,12.971L55.357,10.763C55.309,10.683 55.263,10.635 55.219,10.619C55.175,10.603 55.125,10.595 55.069,10.595L54.889,10.595C54.809,10.595 54.757,10.621 54.733,10.673C54.709,10.725 54.697,10.783 54.697,10.847L54.697,16.955L54.577,16.955L54.577,10.847C54.577,10.719 54.603,10.625 54.655,10.565C54.707,10.505 54.785,10.475 54.889,10.475L55.093,10.475C55.157,10.475 55.221,10.489 55.285,10.517C55.349,10.545 55.405,10.599 55.453,10.679L56.917,12.911C57.053,13.119 57.153,13.255 57.217,13.319C57.281,13.383 57.385,13.415 57.529,13.415Z" style="fill:rgb(128,128,128);fill-rule:nonzero;stroke:rgb(127,127,127);stroke-width:0.42px;"/>
        <path d="M67.429,14.591L64.957,14.591L64.957,16.955L64.837,16.955L64.837,11.44L67.429,11.44C67.805,11.44 68.111,11.482 68.347,11.566C68.583,11.65 68.765,11.764 68.893,11.908C69.021,12.052 69.109,12.224 69.157,12.424C69.205,12.624 69.229,12.84 69.229,13.072L69.229,12.995C69.229,13.227 69.205,13.441 69.157,13.637C69.109,13.833 69.021,14.001 68.893,14.141C68.765,14.281 68.583,14.391 68.347,14.471C68.111,14.551 67.805,14.591 67.429,14.591ZM64.957,14.471L67.429,14.471C67.781,14.471 68.067,14.435 68.287,14.363C68.507,14.291 68.677,14.189 68.797,14.057C68.917,13.925 68.999,13.769 69.043,13.589C69.087,13.409 69.109,13.211 69.109,12.995L69.109,13.072C69.109,12.856 69.087,12.656 69.043,12.472C68.999,12.288 68.917,12.128 68.797,11.992C68.677,11.856 68.507,11.75 68.287,11.674C68.067,11.598 67.781,11.56 67.429,11.56L64.957,11.56L64.957,14.471Z" style="fill:rgb(128,128,128);fill-rule:nonzero;stroke:rgb(127,127,127);stroke-width:0.42px;"/>
        <path d="M77.689,15.491C77.689,15.971 77.517,16.361 77.173,16.661C76.829,16.961 76.189,17.111 75.253,17.111C74.317,17.111 73.681,16.961 73.345,16.661C73.009,16.361 72.841,15.971 72.841,15.491L72.841,11.951C72.841,11.471 73.009,11.081 73.345,10.781C73.681,10.481 74.317,10.331 75.253,10.331C76.189,10.331 76.829,10.481 77.173,10.781C77.517,11.081 77.689,11.471 77.689,11.951L77.689,15.491ZM72.961,15.491C72.961,15.939 73.121,16.301 73.441,16.577C73.761,16.853 74.365,16.991 75.253,16.991C76.141,16.991 76.749,16.853 77.077,16.577C77.405,16.301 77.569,15.939 77.569,15.491L77.569,11.951C77.569,11.503 77.405,11.141 77.077,10.865C76.749,10.589 76.141,10.451 75.253,10.451C74.365,10.451 73.761,10.589 73.441,10.865C73.121,11.141 72.961,11.503 72.961,11.951L72.961,15.491Z" style="fill:rgb(128,128,128);fill-rule:nonzero;stroke:rgb(127,127,127);stroke-width:0.42px;"/>
        <path d="M82.105,10.571L86.521,15.539L86.521,10.475L86.641,10.475L86.641,16.955L86.521,16.955L86.521,15.719L81.985,10.631C81.977,10.623 81.967,10.615 81.955,10.607C81.943,10.599 81.933,10.595 81.925,10.595C81.917,10.595 81.911,10.599 81.907,10.607C81.903,10.615 81.901,10.623 81.901,10.631L81.901,16.955L81.781,16.955L81.781,10.607C81.781,10.559 81.797,10.523 81.829,10.499C81.861,10.475 81.893,10.463 81.925,10.463C81.957,10.463 81.985,10.471 82.009,10.487C82.033,10.503 82.065,10.531 82.105,10.571Z" style="fill:rgb(128,128,128);fill-rule:nonzero;stroke:rgb(127,127,127);stroke-width:0.42px;"/>
        <path d="M94.909,16.835L94.909,16.955L90.865,16.955L90.865,10.683L93.937,10.683L93.937,10.803L90.985,10.803L90.985,13.607L93.937,13.607L93.937,13.727L90.985,13.727L90.985,16.835L94.909,16.835Z" style="fill:rgb(128,128,128);fill-rule:nonzero;stroke:rgb(127,127,127);stroke-width:0.42px;"/>
        <path d="M98.989,10.571L103.405,15.539L103.405,10.475L103.525,10.475L103.525,16.955L103.405,16.955L103.405,15.719L98.869,10.631C98.861,10.623 98.851,10.615 98.839,10.607C98.827,10.599 98.817,10.595 98.809,10.595C98.801,10.595 98.795,10.599 98.791,10.607C98.787,10.615 98.785,10.623 98.785,10.631L98.785,16.955L98.665,16.955L98.665,10.607C98.665,10.559 98.681,10.523 98.713,10.499C98.745,10.475 98.777,10.463 98.809,10.463C98.841,10.463 98.869,10.471 98.893,10.487C98.917,10.503 98.949,10.531 98.989,10.571Z" style="fill:rgb(128,128,128);fill-rule:nonzero;stroke:rgb(127,127,127);stroke-width:0.42px;"/>
        <path d="M109.489,16.955L109.489,10.595L107.029,10.595L107.029,10.475L112.069,10.475L112.069,10.595L109.609,10.595L109.609,16.955L109.489,16.955Z" style="fill:rgb(128,128,128);fill-rule:nonzero;stroke:rgb(127,127,127);stroke-width:0.42px;"/>
    </g>
</svg>
